<svg width="550" height="458" xmlns="http://www.w3.org/2000/svg" xmlns:xlink="http://www.w3.org/1999/xlink" overflow="hidden"><defs><clipPath id="clip0"><rect x="641" y="678" width="550" height="458"/></clipPath></defs><g clip-path="url(#clip0)" transform="translate(-641 -678)"><path d="M1188.46 679.327 1081.45 715.851C1071.89 712.646 1053.59 709.84 1026.39 718.899 990.038 731.284 980.003 760.387 954.983 797.637 910.163 750.08 840.313 704.394 784.686 685.688 779.048 683.831 772.595 686.636 770.275 691.954 769.4 693.958 769.21 696.132 769.732 698.169 778.319 726.458 790.446 753.566 805.876 778.963 855.274 789.019 902.307 805.132 932.957 827.373 929.961 830.895 926.682 834.503 923.242 838.091 864.69 796.751 736.105 773.609 654.614 782.957 648.533 783.68 643.971 788.795 644.423 794.381 644.589 796.424 645.425 798.34 646.82 799.875 682.196 837.117 769.091 890.763 841.71 913.522L716.363 1124.86C714.761 1127.91 716.07 1131.45 719.287 1132.76 721.539 1133.68 724.236 1133.29 726.214 1131.76 768.633 1092.41 844.768 1027.69 913.608 999.421 1045.89 945.118 1097.88 847.311 1090.23 731.764L1189.71 682.372C1190.57 681.851 1190.86 680.802 1190.34 680.028 1189.95 679.449 1189.2 679.17 1188.46 679.327Z" fill="#F46523" fill-rule="evenodd" fill-opacity="1"/></g></svg>